@startuml
'https://plantuml.com/class-diagram
class Member
class BoardMember
class Event
class Conference
class BoardMeeting
class Location
class Person
class AAUOC
Event <|-- Conference
Event <|-- BoardMeeting
Person <|-- Member
Member <|-- BoardMember
AAUOC o-- "0..*"Person
AAUOC o-- "0..*"Location
AAUOC o-- "0..*"Event
Location "1" -- "0..*" Event:isLocated In
Event "0..*" -- "0..*" Member : attendsTo
BoardMember "0..*"-- "0..*"BoardMeeting:attendsTo
Person "0..*" -- "0..*"Conference:attendsTo
class AAUOC {
newLocation(l:Location): void
newEvent(e : Event) : void
newPerson(p : Person) : void
informEvent(e : Event) : void
register(m : Member,e : Event) : void
}
class Location{
description : String
address : String
}
class Event{
date : Date
description : String
assign(l : Location) : void
}
class Member{
e-mail : String
}
class Conference{
max_attendees : Integer
}
class Person{
name : String
}

@enduml
